<svg id="Layer_5" enable-background="new 0 0 64 64" height="512" viewBox="0 0 64 64" width="512" xmlns="http://www.w3.org/2000/svg"><g><path d="m31 19h2v-2c1.654 0 3-1.346 3-3s-1.346-3-3-3h-2c-.552 0-1-.449-1-1s.448-1 1-1h3v1h2v-3h-3v-2h-2v2c-1.654 0-3 1.346-3 3s1.346 3 3 3h2c.552 0 1 .449 1 1s-.448 1-1 1h-3v-1h-2v3h3z"/><path d="m61 37h-6v-14h4v-2.541l-16.213-10.6c-.999-5.044-5.454-8.859-10.787-8.859s-9.788 3.815-10.787 8.859l-16.213 10.6v2.541h4v14h-6c-1.103 0-2 .897-2 2v4c0 1.103.897 2 2 2v18h58v-18c1.103 0 2-.897 2-2v-4c0-1.103-.897-2-2-2zm-22.695-16c2.738-1.924 4.555-5.061 4.676-8.626l13.192 8.626zm-6.305-18c4.963 0 9 4.038 9 9s-4.037 9-9 9-9-4.038-9-9 4.037-9 9-9zm-10.981 9.374c.121 3.565 1.938 6.702 4.676 8.626h-17.868zm-10.019 10.626h42v14h-14.46l-2.6-2h5.06v-10h-8v8h-2v-8h-8v10h5.06l-2.6 2h-14.46zm24 38h-6v-7c0-1.654 1.346-3 3-3s3 1.346 3 3zm-3-12c-2.757 0-5 2.243-5 5v7h-2v-14h14v14h-2v-7c0-2.757-2.243-5-5-5zm-9-2v14h-2v-14zm2.737-2 6.263-5.281 6.263 5.281zm15.263 2h2v14h-2zm.365-2-9.365-7.897-9.365 7.897h-3.635v-.508l12.34-9.492h1.32l12.34 9.492v.508zm-12.365-12h-4v-6h4zm6 0v-6h4v6zm-32 6h19.86l-5.2 4h-14.66zm2 6h12v2h2v14h-14zm54 16h-14v-14h2v-2h12zm2-18h-14.66l-5.2-4h19.86z"/><path d="m51 25h-8v10h8zm-2 8h-4v-6h4z"/><path d="m13 35h8v-10h-8zm2-8h4v6h-4z"/><path d="m57 59v-12h-10v12zm-8-10h6v8h-6z"/><path d="m7 59h10v-12h-10zm2-10h6v8h-6z"/></g></svg>