<svg id="Capa_1" enable-background="new 0 0 512 512" height="512" viewBox="0 0 512 512" width="512" xmlns="http://www.w3.org/2000/svg"><g><path d="m496.997 106.471h-136.026v-41.008c0-19.303-15.704-35.007-35.007-35.007h-139.928c-19.303 0-35.007 15.704-35.007 35.007v41.008h-136.026c-8.286 0-15.003 6.717-15.003 15.003v145.028c0 7.804 5.984 14.306 13.761 14.951l7.243.601v184.487c0 8.286 6.717 15.003 15.003 15.003h439.986c8.286 0 15.003-6.717 15.003-15.003v-184.487l7.242-.601c7.778-.645 13.762-7.146 13.762-14.951v-145.028c0-8.286-6.717-15.003-15.003-15.003zm-315.962-41.008c0-2.757 2.244-5.001 5.001-5.001h139.928c2.757 0 5.001 2.244 5.001 5.001v41.008h-149.93zm-151.029 71.014h451.988v116.216l-140.161 11.631 21.457-21.458c5.855-5.853 5.859-15.359 0-21.217l-42.435-42.434c-5.859-5.859-15.358-5.859-21.217 0l-43.589 43.589-43.638-43.638c-5.859-5.861-15.358-5.859-21.217 0l-42.435 42.434c-5.855 5.854-5.859 15.36 0 21.217l21.522 21.522-140.275-11.646zm194.218 160.588c5.859-5.859 5.859-15.358 0-21.217l-43.638-43.639 21.218-21.217 43.638 43.638c5.859 5.859 15.358 5.859 21.217 0l43.589-43.589 21.217 21.217-43.589 43.59c-5.859 5.859-5.859 15.358 0 21.217l43.139 43.139-21.217 21.217-43.139-43.138c-5.86-5.86-15.358-5.859-21.217 0l-42.788 42.788-21.218-21.217zm236.766 154.473h-409.98v-166.992l132.314 10.985-33.714 33.714c-5.856 5.855-5.858 15.36 0 21.217l42.435 42.434c5.859 5.859 15.358 5.859 21.217 0l42.788-42.788 43.139 43.138c5.857 5.858 15.357 5.86 21.217 0l42.435-42.434c5.855-5.854 5.859-15.36 0-21.217l-34.078-34.078 132.227-10.973z"/></g></svg>