<?xml version="1.0"?>
<svg xmlns="http://www.w3.org/2000/svg" viewBox="0 0 512 512" width="512" height="512"><g id="User_Profile" data-name="User Profile"><g id="Outline"><circle cx="104.43" cy="88" r="8"/><path d="M506.65,121.53A67.96,67.96,0,0,0,444,80H136.43a8,8,0,0,0,0,16H444a52,52,0,0,1,52,52V364a52,52,0,0,1-52,52H68a52,52,0,0,1-52-52V148A52,52,0,0,1,68,96h4.43a8,8,0,0,0,0-16H68A67.931,67.931,0,0,0,0,148V364a67.963,67.963,0,0,0,68,68H444a67.96,67.96,0,0,0,68-68V148A67.5,67.5,0,0,0,506.65,121.53Z"/><path d="M81.328,202.509l.47,2.174c0,.025.011.049.016.074l7.762,35.854.192.722a54.87,54.87,0,0,0,22.339,29.416A8.059,8.059,0,0,0,112,272v9.441l-9.587,1.918-.047.009-38.211,7.643A40.106,40.106,0,0,0,32,330.233V376a8,8,0,0,0,16,0V330.233A24.064,24.064,0,0,1,67.293,306.7l28.957-5.791a48,48,0,0,0,95.5,0l28.956,5.791A24.064,24.064,0,0,1,240,330.233V376a8,8,0,0,0,16,0V330.233a40.106,40.106,0,0,0-32.155-39.222l-38.211-7.643-.047-.009L176,281.441V272a7.985,7.985,0,0,0-.251-1.956,54.853,54.853,0,0,0,21.3-28.711l.113-.356,8.338-38.515a60.8,60.8,0,0,0-12.435-51.007,64.289,64.289,0,0,0-99.311,0A60.817,60.817,0,0,0,81.328,202.509Zm94.622,95.24a32,32,0,0,1-63.9,0l15.95-3.19V277.922a58.065,58.065,0,0,0,32-.347v16.984Zm5.734-60.905C176.375,253.1,161.039,264,143.407,264s-32.967-10.9-38.276-27.156L98.043,204.1a26.372,26.372,0,0,1,13.585-11.591c6,2.389,20.23,7.491,32.372,7.491s26.347-5.093,32.357-7.485a26.964,26.964,0,0,1,12.729,10.138Zm-75.509-75.305a48.289,48.289,0,0,1,74.465,0,45.3,45.3,0,0,1,9.377,20.1,42.471,42.471,0,0,0-12.241-5.441l-2.593-.587-2.427,1.076C172.591,176.761,156.1,184,144,184s-28.591-7.239-28.751-7.311l-2.431-1.08-2.594.59a42.982,42.982,0,0,0-13.569,6.312A45.222,45.222,0,0,1,106.175,161.539Z"/><path d="M72,360v16a8,8,0,0,0,16,0V360a8,8,0,0,0-16,0Z"/><path d="M200,360v16a8,8,0,0,0,16,0V360a8,8,0,0,0-16,0Z"/><path d="M448,208a8,8,0,0,0,16,0V184a8,8,0,0,0-16,0Z"/><path d="M416,208a8,8,0,0,0,16,0V184a8,8,0,0,0-16,0Z"/><path d="M384,208a8,8,0,0,0,16,0V184a8,8,0,0,0-16,0Z"/><path d="M352,208a8,8,0,0,0,16,0V184a8,8,0,0,0-16,0Z"/><path d="M320,208a8,8,0,0,0,16,0V184a8,8,0,0,0-16,0Z"/><path d="M288,208a8,8,0,0,0,16,0V184a8,8,0,0,0-16,0Z"/><circle cx="424" cy="152" r="8"/><circle cx="296" cy="152" r="8"/><circle cx="392" cy="152" r="8"/><circle cx="328" cy="152" r="8"/><circle cx="456" cy="152" r="8"/><circle cx="360" cy="152" r="8"/><path d="M360,272h96a8,8,0,0,0,0-16H360a8,8,0,0,0,0,16Z"/><circle cx="328" cy="264" r="8"/><circle cx="296" cy="264" r="8"/><path d="M296,304H456a8,8,0,0,0,0-16H296a8,8,0,0,0,0,16Z"/><path d="M296,336H456a8,8,0,0,0,0-16H296a8,8,0,0,0,0,16Z"/><circle cx="456" cy="360" r="8"/><circle cx="424" cy="360" r="8"/><path d="M296,368h96a8,8,0,0,0,0-16H296a8,8,0,0,0,0,16Z"/></g></g></svg>
