<svg id="Capa_1" enable-background="new 0 0 509.363 509.363" height="512" viewBox="0 0 509.363 509.363" width="512" xmlns="http://www.w3.org/2000/svg"><g><path d="m38.381 212.18c4.142 0 7.5-3.358 7.5-7.5v-167.98c0-11.965 9.735-21.7 21.7-21.7h302.51c11.965 0 21.7 9.735 21.7 21.7v127.98c0 4.142 3.358 7.5 7.5 7.5s7.5-3.358 7.5-7.5v-16.405h13.116c9.629 0 17.462-7.833 17.462-17.462v-3.913c0-1.358 1.105-2.463 2.463-2.463h3.913c9.629 0 17.463-7.834 17.463-17.463v-22.086c0-9.629-7.834-17.463-17.463-17.463h-36.954v-30.725c0-20.236-16.463-36.7-36.7-36.7h-302.51c-20.236 0-36.7 16.464-36.7 36.7v167.98c0 4.142 3.358 7.5 7.5 7.5zm405.364-129.755c1.358 0 2.463 1.105 2.463 2.463v22.087c0 1.358-1.105 2.463-2.463 2.463h-3.913c-9.629 0-17.463 7.834-17.463 17.463v3.913c0 1.358-1.104 2.462-2.462 2.462h-13.116v-50.851z"/><path d="m406.791 289.576v-90.896c0-4.142-3.358-7.5-7.5-7.5s-7.5 3.358-7.5 7.5v88.289c-2.93-.272-5.897-.418-8.897-.418-52.707 0-95.587 42.88-95.587 95.587 0 29.32 13.273 55.594 34.122 73.142h-253.848c-11.965 0-21.7-9.735-21.7-21.7v-194.9c0-4.142-3.358-7.5-7.5-7.5s-7.5 3.358-7.5 7.5v194.9c0 20.236 16.464 36.7 36.7 36.7h12.81v27.657c0 3.46 1.731 6.655 4.63 8.545 2.899 1.889 6.52 2.185 9.686.788l22.704-10.013 25.268 11.223c1.33.591 2.741.883 4.146.883 1.94 0 3.869-.557 5.554-1.653 2.906-1.889 4.641-5.086 4.641-8.552v-28.878h188.896c11.381 4.792 23.876 7.445 36.979 7.445 52.707 0 95.587-42.88 95.587-95.587 0-44.458-30.51-81.924-71.691-92.562zm-264.771 202.198-20.459-9.087c-2.623-1.166-5.633-1.171-8.258-.012l-17.911 7.899v-20.294h46.628zm240.874-29.049c-44.436 0-80.587-36.151-80.587-80.587s36.151-80.587 80.587-80.587 80.587 36.151 80.587 80.587-36.151 80.587-80.587 80.587z"/><path d="m323.2 245.085c0-4.142-3.358-7.5-7.5-7.5h-224.012c-4.142 0-7.5 3.358-7.5 7.5s3.358 7.5 7.5 7.5h224.012c4.143 0 7.5-3.357 7.5-7.5z"/><path d="m289.599 290.626c0-4.142-3.358-7.5-7.5-7.5h-190.411c-4.142 0-7.5 3.358-7.5 7.5s3.358 7.5 7.5 7.5h190.411c4.142 0 7.5-3.357 7.5-7.5z"/><path d="m91.688 324.61c-4.142 0-7.5 3.358-7.5 7.5s3.358 7.5 7.5 7.5h125.074c4.142 0 7.5-3.358 7.5-7.5s-3.358-7.5-7.5-7.5z"/><path d="m357.324 186.045v-114.853c0-12.284-9.993-22.277-22.277-22.277h-234.045c-12.283 0-22.276 9.993-22.276 22.277v114.853c0 12.284 9.993 22.277 22.276 22.277h234.045c12.284 0 22.277-9.993 22.277-22.277zm-263.599 0v-114.853c0-4.013 3.264-7.277 7.276-7.277h234.045c4.013 0 7.277 3.264 7.277 7.277v114.853c0 4.013-3.264 7.277-7.277 7.277h-234.044c-4.012 0-7.277-3.264-7.277-7.277z"/><path d="m383.404 320.158c-4.142 0-7.5 3.358-7.5 7.5v77.392c0 4.142 3.358 7.5 7.5 7.5s7.5-3.358 7.5-7.5v-77.392c0-4.142-3.358-7.5-7.5-7.5z"/><path d="m382.385 425.045c-4.142 0-7.5 3.358-7.5 7.5v4.073c0 4.142 3.358 7.5 7.5 7.5s7.5-3.358 7.5-7.5v-4.073c0-4.142-3.357-7.5-7.5-7.5z"/><path d="m284.521 127.496 16.957-24.022c2.389-3.384 1.582-8.064-1.802-10.453-3.385-2.389-8.064-1.582-10.453 1.802l-13.793 19.541-13.49-19.484c-2.358-3.406-7.03-4.256-10.436-1.897-3.406 2.358-4.255 7.03-1.897 10.436l16.612 23.995-18.901 26.776c-2.389 3.384-1.582 8.064 1.802 10.453 1.314.928 2.824 1.373 4.319 1.373 2.354 0 4.673-1.105 6.134-3.175l15.737-22.294 16.201 23.402c1.456 2.104 3.795 3.231 6.173 3.231 1.472 0 2.96-.433 4.262-1.334 3.406-2.358 4.255-7.03 1.897-10.436z"/><path d="m178.463 98.724c0-4.142-3.358-7.5-7.5-7.5h-32.592c-4.142 0-7.5 3.358-7.5 7.5s3.358 7.5 7.5 7.5h8.8l.025 50.705c.002 4.141 3.359 7.496 7.5 7.496h.004c4.142-.002 7.498-3.362 7.496-7.504l-.025-50.697h8.793c4.141 0 7.499-3.358 7.499-7.5z"/><path d="m211.497 94.705c-1.175-2.854-4-4.688-7.063-4.644-3.085.053-5.823 1.989-6.901 4.881l-22.116 59.365c-1.446 3.881.528 8.2 4.41 9.646.863.321 1.747.474 2.617.474 3.042 0 5.905-1.865 7.029-4.884l5.585-14.992h20.742l6.271 15.229c1.577 3.83 5.96 5.657 9.791 4.08 3.83-1.577 5.657-5.96 4.08-9.791zm-10.85 34.846 4.264-11.445 4.713 11.445z"/></g></svg>